<svg xmlns="http://www.w3.org/2000/svg" viewBox="0 0 32 32" width="32" height="32">
  <defs>
    <linearGradient id="gradient" x1="0%" y1="0%" x2="100%" y2="100%">
      <stop offset="0%" style="stop-color:#4F46E5;stop-opacity:1" />
      <stop offset="100%" style="stop-color:#7C3AED;stop-opacity:1" />
    </linearGradient>
  </defs>
  
  <!-- 배경 원 -->
  <circle cx="16" cy="16" r="16" fill="url(#gradient)"/>
  
  <!-- S 글자 -->
  <path d="M12 10c0-1.1.9-2 2-2h4c1.1 0 2 .9 2 2s-.9 2-2 2h-4v2h4c2.2 0 4 1.8 4 4s-1.8 4-4 4h-4c-1.1 0-2-.9-2-2s.9-2 2-2h4v-2h-4c-2.2 0-4-1.8-4-4z" fill="white"/>
</svg>