<svg width="49" height="48" viewBox="0 0 49 48" fill="none" xmlns="http://www.w3.org/2000/svg">
<path d="M16.4117 23.9C15.9884 23.9 15.6351 24.0436 15.3517 24.331C15.0684 24.6186 14.9267 24.975 14.9267 25.4V32.65C14.9267 33.075 15.0712 33.4311 15.3602 33.7185C15.6496 34.0061 16.0059 34.15 16.4292 34.15C16.8529 34.15 17.2084 34.0061 17.4957 33.7185C17.7831 33.4311 17.9267 33.075 17.9267 32.65V25.4C17.9267 24.975 17.7801 24.6186 17.4867 24.331C17.1937 24.0436 16.8354 23.9 16.4117 23.9ZM32.9042 13.15C32.4806 13.15 32.1271 13.2936 31.8437 13.581C31.5604 13.8686 31.4187 14.225 31.4187 14.65V32.65C31.4187 33.075 31.5634 33.4311 31.8527 33.7185C32.1417 34.0061 32.4981 34.15 32.9217 34.15C33.3451 34.15 33.7004 34.0061 33.9877 33.7185C34.2751 33.4311 34.4187 33.075 34.4187 32.65V14.65C34.4187 14.225 34.2722 13.8686 33.9792 13.581C33.6859 13.2936 33.3276 13.15 32.9042 13.15ZM24.6577 28.25C24.2304 28.25 23.8751 28.3936 23.5917 28.681C23.3084 28.9686 23.1667 29.325 23.1667 29.75V32.65C23.1667 33.075 23.3114 33.4311 23.6007 33.7185C23.8897 34.0061 24.2481 34.15 24.6757 34.15C25.1031 34.15 25.4584 34.0061 25.7417 33.7185C26.0251 33.4311 26.1667 33.075 26.1667 32.65V29.75C26.1667 29.325 26.0221 28.9686 25.7327 28.681C25.4437 28.3936 25.0854 28.25 24.6577 28.25ZM9.77422 42.299C8.85422 42.299 8.05655 41.9611 7.38122 41.2855C6.70555 40.6101 6.36772 39.8125 6.36772 38.8925V9.10746C6.36772 8.18413 6.70555 7.38363 7.38122 6.70596C8.05655 6.02796 8.85422 5.68896 9.77422 5.68896H39.5592C40.4826 5.68896 41.2831 6.02796 41.9607 6.70596C42.6387 7.38363 42.9777 8.18413 42.9777 9.10746V38.8925C42.9777 39.8125 42.6387 40.6101 41.9607 41.2855C41.2831 41.9611 40.4826 42.299 39.5592 42.299H9.77422ZM9.77422 38.8925H39.5592V9.10746H9.77422V38.8925ZM24.6757 23.9C25.1031 23.9 25.4584 23.7553 25.7417 23.466C26.0251 23.177 26.1667 22.8186 26.1667 22.391C26.1667 21.9636 26.0221 21.6083 25.7327 21.325C25.4437 21.0416 25.0854 20.9 24.6577 20.9C24.2304 20.9 23.8751 21.0446 23.5917 21.334C23.3084 21.623 23.1667 21.9813 23.1667 22.409C23.1667 22.8363 23.3114 23.1916 23.6007 23.475C23.8897 23.7583 24.2481 23.9 24.6757 23.9Z" fill="black"/>
</svg>
