<svg width="49" height="48" viewBox="0 0 49 48" fill="none" xmlns="http://www.w3.org/2000/svg">
<path d="M14.4483 19.412L22.9538 5.78695C23.1365 5.52162 23.3455 5.32262 23.5808 5.18995C23.8165 5.05762 24.0838 4.99146 24.3828 4.99146C24.6818 4.99146 24.9492 5.05762 25.1848 5.18995C25.4208 5.32262 25.6302 5.52162 25.8128 5.78695L34.3298 19.412C34.5125 19.7136 34.5955 20.017 34.5788 20.322C34.5622 20.627 34.4812 20.912 34.3358 21.177C34.1908 21.4423 33.99 21.6516 33.7333 21.805C33.4767 21.9583 33.1825 22.035 32.8508 22.035H15.9158C15.5802 22.035 15.2823 21.957 15.0223 21.801C14.7623 21.6453 14.5652 21.4373 14.4308 21.177C14.2855 20.9123 14.2045 20.6281 14.1878 20.3245C14.1712 20.0205 14.258 19.7163 14.4483 19.412ZM35.8803 44.55C33.334 44.55 31.1982 43.686 29.4728 41.958C27.7478 40.2303 26.8853 38.094 26.8853 35.549C26.8853 33.004 27.7475 30.8663 29.4718 29.136C31.1958 27.4053 33.3322 26.54 35.8808 26.54C38.4295 26.54 40.5672 27.4048 42.2938 29.1345C44.0202 30.8638 44.8833 33.0021 44.8833 35.5495C44.8833 38.0968 44.0193 40.2338 42.2913 41.9605C40.5637 43.6868 38.4267 44.55 35.8803 44.55ZM5.63983 41.585V29.2055C5.63983 28.7255 5.8035 28.3196 6.13083 27.988C6.45816 27.656 6.86616 27.49 7.35483 27.49H19.7463C20.227 27.49 20.6312 27.656 20.9588 27.988C21.2862 28.3196 21.4498 28.7255 21.4498 29.2055V41.585C21.4498 42.0736 21.2862 42.4816 20.9588 42.809C20.6312 43.1363 20.227 43.3 19.7463 43.3H7.35483C6.86616 43.3 6.45816 43.1363 6.13083 42.809C5.8035 42.4816 5.63983 42.0736 5.63983 41.585ZM35.8888 41.1315C37.4542 41.1315 38.7748 40.592 39.8508 39.513C40.9268 38.4343 41.4648 37.1123 41.4648 35.547C41.4648 33.9816 40.9253 32.659 39.8463 31.579C38.7677 30.4986 37.4457 29.9585 35.8803 29.9585C34.315 29.9585 32.9923 30.5 31.9123 31.583C30.832 32.666 30.2918 33.9901 30.2918 35.5555C30.2918 37.1208 30.8333 38.4415 31.9163 39.5175C32.9993 40.5935 34.3235 41.1315 35.8888 41.1315ZM9.05833 39.8815H18.0433V30.9085H9.05833V39.8815ZM18.9868 18.6165H29.7798L24.3833 9.87695L18.9868 18.6165Z" fill="black"/>
</svg>
