<svg width="48" height="48" viewBox="0 0 48 48" fill="none" xmlns="http://www.w3.org/2000/svg">
<path d="M20.0805 33.1675C23.7065 33.1675 26.8025 31.8906 29.3685 29.337C31.9345 26.7836 33.2175 23.6845 33.2175 20.0395C33.2175 16.4225 31.934 13.347 29.367 10.813C26.8 8.27896 23.7065 7.01196 20.0865 7.01196C16.4645 7.01196 13.3903 8.27946 10.864 10.8145C8.33734 13.3495 7.07401 16.4225 7.07401 20.0335C7.07401 23.6825 8.33734 26.7836 10.864 29.337C13.3903 31.8906 16.4625 33.1675 20.0805 33.1675ZM20.1345 25.4805C19.6768 25.4805 19.2963 25.3241 18.993 25.0115C18.6897 24.6991 18.538 24.3156 18.538 23.861V13.8455C18.538 13.3908 18.6925 13.0073 19.0015 12.695C19.3108 12.3823 19.6943 12.226 20.152 12.226C20.61 12.226 20.9933 12.3823 21.302 12.695C21.6107 13.0073 21.765 13.3908 21.765 13.8455V23.861C21.765 24.3156 21.6078 24.6991 21.2935 25.0115C20.9788 25.3241 20.5925 25.4805 20.1345 25.4805ZM12.8365 25.4805C12.3788 25.4805 11.9963 25.3241 11.689 25.0115C11.382 24.6991 11.2285 24.3156 11.2285 23.861V18.0195C11.2285 17.5648 11.3857 17.1813 11.7 16.869C12.0147 16.5563 12.401 16.4 12.859 16.4C13.3167 16.4 13.6992 16.5563 14.0065 16.869C14.3138 17.1813 14.4675 17.5648 14.4675 18.0195V23.861C14.4675 24.3156 14.3102 24.6991 13.9955 25.0115C13.6808 25.3241 13.2945 25.4805 12.8365 25.4805ZM27.4445 25.4805C26.9865 25.4805 26.6038 25.3241 26.2965 25.0115C25.9895 24.6991 25.836 24.3156 25.836 23.861V20.0695C25.836 19.6181 25.9933 19.2375 26.308 18.9275C26.6227 18.6171 27.0088 18.462 27.4665 18.462C27.9245 18.462 28.307 18.6171 28.614 18.9275C28.9213 19.2375 29.075 19.6181 29.075 20.0695V23.861C29.075 24.3156 28.9177 24.6991 28.603 25.0115C28.2883 25.3241 27.9022 25.4805 27.4445 25.4805ZM20.081 36.49C15.538 36.49 11.6805 34.891 8.50851 31.693C5.33684 28.495 3.75101 24.6146 3.75101 20.052C3.75101 15.4893 5.33434 11.6215 8.50101 8.44846C11.6677 5.27546 15.5323 3.68896 20.095 3.68896C24.6577 3.68896 28.5392 5.27896 31.7395 8.45896C34.9398 11.6386 36.54 15.4968 36.54 20.0335C36.54 22.0078 36.217 23.8735 35.571 25.6305C34.925 27.3875 34.0187 28.9785 32.852 30.4035L43.1175 40.6685C43.4572 41.0085 43.6207 41.4063 43.608 41.862C43.5953 42.3176 43.4277 42.7155 43.105 43.0555C42.79 43.3951 42.3922 43.565 41.9115 43.565C41.4305 43.565 41.0202 43.3951 40.6805 43.0555L30.465 32.79C29.0333 33.9566 27.4368 34.865 25.6755 35.515C23.9142 36.165 22.0493 36.49 20.081 36.49Z" fill="black"/>
</svg>
